# xmcd
#
# Track frame offsets: 
#        150
#        18730
#        35894
#        50045
#        69487
#        86053
#        99647
#        113586
#        134896
#        144623
#        162204
#        180197
#        194614
#        224693
#
# Disc length: 3189 seconds
#
# Revision: 0
# Processed by: cddbd v1.5.2PL0 Copyright (c) Steve Scherf et al.
# Submitted via: ExactAudioCopy v0.95b4
#
DISCID=db0c730e
DTITLE=Ry Cooder - I, Flathead
DYEAR=2009
DGENRE=Country
TTITLE0=Drive Like I Never Been Hurt
TTITLE1=Waitin' for Some Girl
TTITLE2=Johnny Cash
TTITLE3=Can I Smoke In Here?
TTITLE4=Steel Guitar Heaven
TTITLE5=Ridin' With the Blues
TTITLE6=Pink-O-Boogie 
TTITLE7=Fernando Sez
TTITLE8=Spayed Kooley
TTITLE9=pino Dance Hall Girl 
TTITLE10=My Dwarf Is Getting Tired 
TTITLE11=Flathead One More Time 
TTITLE12=5000 Country Music Songs 
TTITLE13=Little Trona Girl 
EXTD=
EXTT0=
EXTT1=
EXTT2=
EXTT3=
EXTT4=
EXTT5=
EXTT6=
EXTT7=
EXTT8=
EXTT9=
EXTT10=
EXTT11=
EXTT12=
EXTT13=
PLAYORDER=
